<svg width="16" height="16" viewBox="0 0 16 16" fill="none" xmlns="http://www.w3.org/2000/svg">
<path d="M11.5355 11.5355C11.0712 11.9998 10.52 12.3681 9.91342 12.6194C9.30679 12.8707 8.65661 13 8 13C7.34339 13 6.69321 12.8707 6.08658 12.6194C5.47995 12.3681 4.92876 11.9998 4.46447 11.5355C4.00017 11.0712 3.63188 10.52 3.3806 9.91341C3.12933 9.30678 3 8.6566 3 7.99999C3 7.34338 3.12933 6.6932 3.3806 6.08657C3.63188 5.47995 4.00017 4.92875 4.46447 4.46446L8 7.99999L11.5355 11.5355Z" fill="#5DAB61"/>
<path d="M4.46447 4.46447C4.92876 4.00018 5.47996 3.63188 6.08658 3.38061C6.69321 3.12934 7.34339 3.00001 8 3.00001C8.65661 3.00001 9.30679 3.12934 9.91342 3.38061C10.52 3.63188 11.0712 4.00018 11.5355 4.46447C11.9998 4.92877 12.3681 5.47996 12.6194 6.08659C12.8707 6.69322 13 7.3434 13 8.00001C13 8.65662 12.8707 9.3068 12.6194 9.91343C12.3681 10.5201 11.9998 11.0712 11.5355 11.5355L8 8.00001L4.46447 4.46447Z" fill="#F44336"/>
</svg>
